<svg xmlns="http://www.w3.org/2000/svg" viewBox="0 0 800 500" role="img" aria-label="On Demand Electrical homepage">
  <defs>
    <linearGradient id="bg" x1="0%" y1="0%" x2="100%" y2="100%">
      <stop offset="0%" stop-color="#1c1917"/>
      <stop offset="100%" stop-color="#292524"/>
    </linearGradient>
    <linearGradient id="accent" x1="0%" y1="0%" x2="100%" y2="0%">
      <stop offset="0%" stop-color="#f59e0b"/>
      <stop offset="100%" stop-color="#d97706"/>
    </linearGradient>
  </defs>
  <rect width="800" height="500" fill="url(#bg)"/>
  <rect x="0" y="0" width="800" height="64" fill="#0c0a09"/>
  <text x="40" y="40" fill="#fbbf24" font-family="system-ui, sans-serif" font-size="20" font-weight="700">On Demand Electrical</text>
  <text x="560" y="40" fill="#a8a29e" font-family="system-ui, sans-serif" font-size="13">HOME · SERVICES · CONTACT</text>
  <rect x="40" y="120" width="420" height="8" rx="4" fill="url(#accent)"/>
  <text x="40" y="170" fill="#fafaf9" font-family="system-ui, sans-serif" font-size="36" font-weight="800">24/7 Emergency Electrical</text>
  <text x="40" y="210" fill="#d6d3d1" font-family="system-ui, sans-serif" font-size="16">Licensed, insured, and on-site fast across the metro.</text>
  <rect x="40" y="240" width="160" height="44" rx="22" fill="url(#accent)"/>
  <text x="72" y="268" fill="#1c1917" font-family="system-ui, sans-serif" font-size="14" font-weight="700">Call Now</text>
  <rect x="500" y="100" width="260" height="300" rx="12" fill="#44403c"/>
  <path d="M630 180 L630 260 M590 220 L670 220" stroke="#fbbf24" stroke-width="8" stroke-linecap="round"/>
  <circle cx="630" cy="220" r="56" fill="none" stroke="#f59e0b" stroke-width="4" opacity="0.35"/>
  <rect x="40" y="380" width="220" height="72" rx="8" fill="#292524" stroke="#57534e"/>
  <rect x="290" y="380" width="220" height="72" rx="8" fill="#292524" stroke="#57534e"/>
  <rect x="540" y="380" width="220" height="72" rx="8" fill="#292524" stroke="#57534e"/>
  <text x="60" y="410" fill="#fbbf24" font-family="system-ui, sans-serif" font-size="12" font-weight="700">PANEL UPGRADES</text>
  <text x="60" y="432" fill="#d6d3d1" font-family="system-ui, sans-serif" font-size="12">Safe, code-compliant installs</text>
  <text x="310" y="410" fill="#fbbf24" font-family="system-ui, sans-serif" font-size="12" font-weight="700">EV CHARGERS</text>
  <text x="310" y="432" fill="#d6d3d1" font-family="system-ui, sans-serif" font-size="12">Home &amp; commercial setup</text>
  <text x="560" y="410" fill="#fbbf24" font-family="system-ui, sans-serif" font-size="12" font-weight="700">SMART LIGHTING</text>
  <text x="560" y="432" fill="#d6d3d1" font-family="system-ui, sans-serif" font-size="12">Energy-efficient upgrades</text>
</svg>
